<svg width="9" height="25" viewBox="0 0 9 25" fill="none" xmlns="http://www.w3.org/2000/svg">
<g clip-path="url(#clip0_3_1353)">
<path d="M7.48851 11.789C7.65815 11.9586 7.74297 12.1595 7.74297 12.3916C7.74297 12.6238 7.65815 12.8247 7.48851 12.9943L1.48851 18.9943C1.31887 19.164 1.11797 19.2488 0.885829 19.2488C0.653687 19.2488 0.452794 19.164 0.283151 18.9943C0.113508 18.8247 0.0286865 18.6238 0.0286865 18.3916V6.39164C0.0286865 6.15949 0.113508 5.9586 0.283151 5.78896C0.452794 5.61932 0.653687 5.53449 0.885829 5.53449C1.11797 5.53449 1.31887 5.61932 1.48851 5.78896L7.48851 11.789Z" fill="white"/>
</g>
<defs>
<clipPath id="clip0_3_1353">
<rect width="8.58" height="24" fill="white" transform="matrix(1 0 0 -1 0.0244141 24.3916)"/>
</clipPath>
</defs>
</svg>
