<svg width="9" height="25" viewBox="0 0 9 25" fill="none" xmlns="http://www.w3.org/2000/svg">
<g clip-path="url(#clip0_3_1363)">
<path d="M7.48851 12.1889C7.65815 12.3585 7.74297 12.5594 7.74297 12.7915C7.74297 13.0237 7.65815 13.2246 7.48851 13.3942L1.48851 19.3942C1.31887 19.5639 1.11797 19.6487 0.885829 19.6487C0.653687 19.6487 0.452794 19.5639 0.283151 19.3942C0.113508 19.2246 0.0286865 19.0237 0.0286865 18.7915V6.79154C0.0286865 6.5594 0.113508 6.3585 0.283151 6.18886C0.452794 6.01922 0.653687 5.9344 0.885829 5.9344C1.11797 5.9344 1.31887 6.01922 1.48851 6.18886L7.48851 12.1889Z" fill="white"/>
</g>
<defs>
<clipPath id="clip0_3_1363">
<rect width="8.58" height="24" fill="white" transform="matrix(1 0 0 -1 0.0244141 24.7915)"/>
</clipPath>
</defs>
</svg>
