<svg width="9" height="25" viewBox="0 0 9 25" fill="none" xmlns="http://www.w3.org/2000/svg">
<g clip-path="url(#clip0_3_1359)">
<path d="M7.48851 11.9789C7.65815 12.1485 7.74297 12.3494 7.74297 12.5816C7.74297 12.8137 7.65815 13.0146 7.48851 13.1843L1.48851 19.1843C1.31887 19.3539 1.11797 19.4387 0.885829 19.4387C0.653687 19.4387 0.452794 19.3539 0.283151 19.1843C0.113508 19.0146 0.0286865 18.8137 0.0286865 18.5816V6.58158C0.0286865 6.34943 0.113508 6.14854 0.283151 5.9789C0.452794 5.80926 0.653687 5.72443 0.885829 5.72443C1.11797 5.72443 1.31887 5.80926 1.48851 5.9789L7.48851 11.9789Z" fill="white"/>
</g>
<defs>
<clipPath id="clip0_3_1359">
<rect width="8.58" height="24" fill="white" transform="matrix(1 0 0 -1 0.0244141 24.5815)"/>
</clipPath>
</defs>
</svg>
