<svg width="81" height="61" viewBox="0 0 81 61" fill="none" xmlns="http://www.w3.org/2000/svg">
<rect width="80" height="60.38" transform="translate(0.254395 0.0117188)" fill="white"/>
<g opacity="0.85" clip-path="url(#clip0_2_1203)">
<path d="M50.8499 31.7017V39.2017C50.8499 39.4725 50.7509 39.7069 50.553 39.9048C50.3551 40.1027 50.1207 40.2017 49.8499 40.2017H43.8499V34.2017H39.8499V40.2017H33.8499C33.579 40.2017 33.3447 40.1027 33.1468 39.9048C32.9488 39.7069 32.8499 39.4725 32.8499 39.2017V31.7017C32.8499 31.6912 32.8525 31.6756 32.8577 31.6548C32.8629 31.634 32.8655 31.6183 32.8655 31.6079L41.8499 24.2017L50.8343 31.6079C50.8447 31.6287 50.8499 31.66 50.8499 31.7017ZM54.3343 30.6235L53.3655 31.7798C53.2822 31.8735 53.1728 31.9308 53.0374 31.9517H52.9905C52.8551 31.9517 52.7457 31.9152 52.6624 31.8423L41.8499 22.8267L31.0374 31.8423C30.9124 31.9256 30.7874 31.9621 30.6624 31.9517C30.527 31.9308 30.4176 31.8735 30.3343 31.7798L29.3655 30.6235C29.2822 30.5194 29.2457 30.397 29.2561 30.2563C29.2665 30.1157 29.3238 30.0037 29.428 29.9204L40.6624 20.561C40.9957 20.2902 41.3915 20.1548 41.8499 20.1548C42.3082 20.1548 42.704 20.2902 43.0374 20.561L46.8499 23.7485V20.7017C46.8499 20.5558 46.8968 20.436 46.9905 20.3423C47.0843 20.2485 47.204 20.2017 47.3499 20.2017H50.3499C50.4957 20.2017 50.6155 20.2485 50.7093 20.3423C50.803 20.436 50.8499 20.5558 50.8499 20.7017V27.0767L54.2718 29.9204C54.3759 30.0037 54.4332 30.1157 54.4436 30.2563C54.454 30.397 54.4176 30.5194 54.3343 30.6235Z" fill="black"/>
</g>
<defs>
<clipPath id="clip0_2_1203">
<rect width="27" height="28" fill="white" transform="matrix(1 0 0 -1 29.2544 44.2017)"/>
</clipPath>
</defs>
</svg>
