<svg width="66" height="66" viewBox="0 0 66 66" fill="none" xmlns="http://www.w3.org/2000/svg">
<rect x="0.524414" y="0.481689" width="65" height="65" rx="32.5" fill="#1C226C"/>
<g clip-path="url(#clip0_2_1314)">
<path d="M44.7432 25.9504C44.8994 26.1067 45.0557 26.3076 45.2119 26.5531H37.3101V18.6513C37.5557 18.8076 37.7566 18.9638 37.9128 19.1201L44.7432 25.9504ZM36.7744 28.696H45.8816V46.3745C45.8816 46.821 45.7253 47.2004 45.4128 47.5129C45.1003 47.8254 44.7208 47.9817 44.2744 47.9817H21.7744C21.328 47.9817 20.9485 47.8254 20.636 47.5129C20.3235 47.2004 20.1673 46.821 20.1673 46.3745V19.5888C20.1673 19.1424 20.3235 18.7629 20.636 18.4504C20.9485 18.1379 21.328 17.9817 21.7744 17.9817H35.1673V27.0888C35.1673 27.5353 35.3235 27.9147 35.636 28.2272C35.9485 28.5397 36.328 28.696 36.7744 28.696ZM39.453 41.0174V39.946C39.453 39.7897 39.4028 39.6614 39.3023 39.5609C39.2019 39.4605 39.0735 39.4103 38.9173 39.4103H27.1316C26.9753 39.4103 26.847 39.4605 26.7465 39.5609C26.6461 39.6614 26.5958 39.7897 26.5958 39.946V41.0174C26.5958 41.1737 26.6461 41.302 26.7465 41.4024C26.847 41.5029 26.9753 41.5531 27.1316 41.5531H38.9173C39.0735 41.5531 39.2019 41.5029 39.3023 41.4024C39.4028 41.302 39.453 41.1737 39.453 41.0174ZM39.453 36.7317V35.6603C39.453 35.504 39.4028 35.3757 39.3023 35.2752C39.2019 35.1748 39.0735 35.1245 38.9173 35.1245H27.1316C26.9753 35.1245 26.847 35.1748 26.7465 35.2752C26.6461 35.3757 26.5958 35.504 26.5958 35.6603V36.7317C26.5958 36.8879 26.6461 37.0163 26.7465 37.1167C26.847 37.2172 26.9753 37.2674 27.1316 37.2674H38.9173C39.0735 37.2674 39.2019 37.2172 39.3023 37.1167C39.4028 37.0163 39.453 36.8879 39.453 36.7317ZM39.453 32.446V31.3745C39.453 31.2183 39.4028 31.0899 39.3023 30.9895C39.2019 30.8891 39.0735 30.8388 38.9173 30.8388H27.1316C26.9753 30.8388 26.847 30.8891 26.7465 30.9895C26.6461 31.0899 26.5958 31.2183 26.5958 31.3745V32.446C26.5958 32.6022 26.6461 32.7306 26.7465 32.831C26.847 32.9315 26.9753 32.9817 27.1316 32.9817H38.9173C39.0735 32.9817 39.2019 32.9315 39.3023 32.831C39.4028 32.7306 39.453 32.6022 39.453 32.446Z" fill="white"/>
</g>
<defs>
<clipPath id="clip0_2_1314">
<rect width="25.72" height="30" fill="white" transform="matrix(1 0 0 -1 20.1644 47.9817)"/>
</clipPath>
</defs>
</svg>
