<svg width="66" height="66" viewBox="0 0 66 66" fill="none" xmlns="http://www.w3.org/2000/svg">
<rect x="0.524414" y="0.481689" width="65" height="65" rx="32.5" fill="#1C226C"/>
<g clip-path="url(#clip0_2_1304)">
<path d="M39.838 34.1201L31.2666 42.6915C31.155 42.792 31.0266 42.8422 30.8816 42.8422C30.7365 42.8422 30.6081 42.792 30.4965 42.6915L25.6751 37.8701C25.5746 37.7585 25.5244 37.6301 25.5244 37.485C25.5244 37.3399 25.5746 37.2172 25.6751 37.1167L26.4452 36.3466C26.5456 36.2462 26.6684 36.196 26.8135 36.196C26.9586 36.196 27.0869 36.2462 27.1985 36.3466L30.8816 40.0297L38.3146 32.5966C38.4262 32.4962 38.5545 32.446 38.6996 32.446C38.8447 32.446 38.9675 32.4962 39.0679 32.5966L39.838 33.3667C39.9385 33.4672 39.9887 33.5899 39.9887 33.735C39.9887 33.8801 39.9385 34.0085 39.838 34.1201ZM20.1673 45.8388H43.7387V28.696H20.1673V45.8388ZM26.5958 25.4817V20.6603C26.5958 20.504 26.5456 20.3757 26.4452 20.2752C26.3447 20.1748 26.2164 20.1245 26.0601 20.1245H24.9887C24.8324 20.1245 24.7041 20.1748 24.6037 20.2752C24.5032 20.3757 24.453 20.504 24.453 20.6603V25.4817C24.453 25.6379 24.5032 25.7663 24.6037 25.8667C24.7041 25.9672 24.8324 26.0174 24.9887 26.0174H26.0601C26.2164 26.0174 26.3447 25.9672 26.4452 25.8667C26.5456 25.7663 26.5958 25.6379 26.5958 25.4817ZM39.453 25.4817V20.6603C39.453 20.504 39.4028 20.3757 39.3023 20.2752C39.2019 20.1748 39.0735 20.1245 38.9173 20.1245H37.8458C37.6896 20.1245 37.5612 20.1748 37.4608 20.2752C37.3604 20.3757 37.3101 20.504 37.3101 20.6603V25.4817C37.3101 25.6379 37.3604 25.7663 37.4608 25.8667C37.5612 25.9672 37.6896 26.0174 37.8458 26.0174H38.9173C39.0735 26.0174 39.2019 25.9672 39.3023 25.8667C39.4028 25.7663 39.453 25.6379 39.453 25.4817ZM45.8816 24.4103V45.8388C45.8816 46.4192 45.6695 46.9214 45.2454 47.3455C44.8213 47.7696 44.3191 47.9817 43.7387 47.9817H20.1673C19.5869 47.9817 19.0847 47.7696 18.6606 47.3455C18.2365 46.9214 18.0244 46.4192 18.0244 45.8388V24.4103C18.0244 23.8299 18.2365 23.3277 18.6606 22.9036C19.0847 22.4795 19.5869 22.2674 20.1673 22.2674H22.3101V20.6603C22.3101 19.9237 22.5724 19.2931 23.097 18.7685C23.6215 18.244 24.2521 17.9817 24.9887 17.9817H26.0601C26.7967 17.9817 27.4273 18.244 27.9519 18.7685C28.4764 19.2931 28.7387 19.9237 28.7387 20.6603V22.2674H35.1673V20.6603C35.1673 19.9237 35.4295 19.2931 35.9541 18.7685C36.4787 18.244 37.1092 17.9817 37.8458 17.9817H38.9173C39.6539 17.9817 40.2845 18.244 40.809 18.7685C41.3336 19.2931 41.5958 19.9237 41.5958 20.6603V22.2674H43.7387C44.3191 22.2674 44.8213 22.4795 45.2454 22.9036C45.6695 23.3277 45.8816 23.8299 45.8816 24.4103Z" fill="white"/>
</g>
<defs>
<clipPath id="clip0_2_1304">
<rect width="30" height="30" fill="white" transform="matrix(1 0 0 -1 18.0244 47.9817)"/>
</clipPath>
</defs>
</svg>
