<svg width="53" height="53" viewBox="0 0 53 53" fill="none" xmlns="http://www.w3.org/2000/svg">
<g filter="url(#filter0_d_3_1390)">
<rect width="40" height="40" transform="translate(6.02441 4.20166)" fill="#0E1738"/>
<g clip-path="url(#clip0_3_1390)">
<path d="M31.5423 26.7508C31.6315 26.8401 31.6762 26.9427 31.6762 27.0588C31.6762 27.1749 31.6315 27.2776 31.5423 27.3668L30.8726 28.0365C30.7833 28.1258 30.6807 28.1704 30.5646 28.1704C30.4485 28.1704 30.3458 28.1258 30.2565 28.0365L24.9932 22.7731L19.7298 28.0365C19.6405 28.1258 19.5378 28.1704 19.4217 28.1704C19.3057 28.1704 19.203 28.1258 19.1137 28.0365L18.444 27.3668C18.3548 27.2776 18.3101 27.1749 18.3101 27.0588C18.3101 26.9427 18.3548 26.8401 18.444 26.7508L24.6851 20.5097C24.7744 20.4204 24.8771 20.3758 24.9932 20.3758C25.1092 20.3758 25.2119 20.4204 25.3012 20.5097L31.5423 26.7508Z" fill="white"/>
</g>
</g>
<defs>
<filter id="filter0_d_3_1390" x="0.0244141" y="0.20166" width="52" height="52" filterUnits="userSpaceOnUse" color-interpolation-filters="sRGB">
<feFlood flood-opacity="0" result="BackgroundImageFix"/>
<feColorMatrix in="SourceAlpha" type="matrix" values="0 0 0 0 0 0 0 0 0 0 0 0 0 0 0 0 0 0 127 0" result="hardAlpha"/>
<feOffset dy="2"/>
<feGaussianBlur stdDeviation="3"/>
<feComposite in2="hardAlpha" operator="out"/>
<feColorMatrix type="matrix" values="0 0 0 0 0 0 0 0 0 0 0 0 0 0 0 0 0 0 0.3 0"/>
<feBlend mode="normal" in2="BackgroundImageFix" result="effect1_dropShadow_3_1390"/>
<feBlend mode="normal" in="SourceGraphic" in2="effect1_dropShadow_3_1390" result="shape"/>
</filter>
<clipPath id="clip0_3_1390">
<rect width="15.44" height="24" fill="white" transform="matrix(1 0 0 -1 18.3044 35.2017)"/>
</clipPath>
</defs>
</svg>
