<svg width="20" height="21" viewBox="0 0 20 21" fill="none" xmlns="http://www.w3.org/2000/svg">
<g clip-path="url(#clip0_2_1194)">
<path d="M12.0282 13.0197C12.0282 13.0197 12.2728 12.7751 12.762 12.2859C13.2512 11.7967 13.4958 10.8639 13.4958 9.48737C13.4958 8.11089 13.0066 6.93343 12.0282 5.95501C11.0498 4.97659 9.87232 4.48737 8.49583 4.48737C7.11934 4.48737 5.94189 4.97659 4.96346 5.95501C3.98504 6.93343 3.49583 8.11089 3.49583 9.48737C3.49583 10.8639 3.98504 12.0413 4.96346 13.0197C5.94189 13.9982 7.11934 14.4874 8.49583 14.4874C9.87232 14.4874 11.0498 13.9982 12.0282 13.0197ZM19.2101 18.7731C19.2101 19.16 19.0687 19.4948 18.786 19.7776C18.5033 20.0603 18.1684 20.2017 17.7815 20.2017C17.3798 20.2017 17.0449 20.0603 16.7771 19.7776L12.949 15.9606C11.6171 16.8832 10.1327 17.3445 8.49583 17.3445C7.43184 17.3445 6.41436 17.138 5.44337 16.7251C4.47239 16.3122 3.63534 15.7541 2.93221 15.051C2.22909 14.3479 1.67105 13.5108 1.25811 12.5398C0.84516 11.5688 0.638687 10.5514 0.638687 9.48737C0.638687 8.42339 0.84516 7.4059 1.25811 6.43492C1.67105 5.46394 2.22909 4.62688 2.93221 3.92376C3.63534 3.22063 4.47239 2.6626 5.44337 2.24965C6.41436 1.8367 7.43184 1.63023 8.49583 1.63023C9.55982 1.63023 10.5773 1.8367 11.5483 2.24965C12.5193 2.6626 13.3563 3.22063 14.0594 3.92376C14.7626 4.62688 15.3206 5.46394 15.7336 6.43492C16.1465 7.4059 16.353 8.42339 16.353 9.48737C16.353 11.1243 15.8917 12.6087 14.969 13.9405L18.7972 17.7686C19.0725 18.0439 19.2101 18.3787 19.2101 18.7731Z" fill="#2C4C8B"/>
</g>
<defs>
<clipPath id="clip0_2_1194">
<rect width="18.58" height="20" fill="white" transform="matrix(1 0 0 -1 0.634399 20.2017)"/>
</clipPath>
</defs>
</svg>
