<svg width="41" height="41" viewBox="0 0 41 41" fill="none" xmlns="http://www.w3.org/2000/svg">
<g clip-path="url(#clip0_3_1374)">
<g clip-path="url(#clip1_3_1374)">
<g clip-path="url(#clip2_3_1374)">
<path d="M39.922 37.8618C39.922 39.2338 38.8068 40.349 37.4348 40.349H2.61396C1.24208 40.349 0.12677 39.2338 0.12677 37.8618V3.0409C0.12677 1.66902 1.24208 0.553711 2.61396 0.553711H37.4348C38.8068 0.553711 39.922 1.66902 39.922 3.0409V37.8618Z" fill="#0277B5"/>
<path d="M14.565 17.1121H10.277V30.0103H14.565V17.1121Z" fill="white"/>
<path d="M12.45 10.8926C10.9829 10.8926 10.0244 11.8571 10.0244 13.1213C10.0244 14.3589 10.9538 15.35 12.3932 15.35H12.4209C13.9161 15.35 14.8468 14.3589 14.8468 13.1213C14.8191 11.8571 13.9162 10.8926 12.45 10.8926Z" fill="white"/>
<path d="M25.0883 16.8086C22.8138 16.8086 21.795 18.0595 21.2245 18.938V17.1118H16.9376C16.9944 18.3217 16.9376 30.01 16.9376 30.01H21.2245V22.8068C21.2245 22.4213 21.2522 22.0358 21.3659 21.7602C21.6753 20.9902 22.3811 20.1926 23.5655 20.1926C25.1161 20.1926 25.7373 21.3758 25.7373 23.109V30.01H30.0244V22.6135C30.0244 18.6517 27.9091 16.8086 25.0883 16.8086Z" fill="white"/>
</g>
</g>
</g>
<defs>
<clipPath id="clip0_3_1374">
<rect width="40" height="40" fill="white" transform="translate(0.0244141 0.451416)"/>
</clipPath>
<clipPath id="clip1_3_1374">
<rect width="40" height="40" fill="white" transform="translate(0.0244141 0.451416)"/>
</clipPath>
<clipPath id="clip2_3_1374">
<rect width="40" height="40" fill="white" transform="translate(0.0244141 0.451416)"/>
</clipPath>
</defs>
</svg>
