<svg width="66" height="66" viewBox="0 0 66 66" fill="none" xmlns="http://www.w3.org/2000/svg">
<rect x="0.524414" y="0.481689" width="65" height="65" rx="32.5" fill="#1C226C"/>
<g clip-path="url(#clip0_2_1309)">
<path d="M21.2287 45.8388H26.0501V41.0174H21.2287V45.8388ZM27.1216 45.8388H32.4787V41.0174H27.1216V45.8388ZM21.2287 39.946H26.0501V34.5888H21.2287V39.946ZM27.1216 39.946H32.4787V34.5888H27.1216V39.946ZM21.2287 33.5174H26.0501V28.696H21.2287V33.5174ZM33.5501 45.8388H38.9073V41.0174H33.5501V45.8388ZM27.1216 33.5174H32.4787V28.696H27.1216V33.5174ZM39.9787 45.8388H44.8001V41.0174H39.9787V45.8388ZM33.5501 39.946H38.9073V34.5888H33.5501V39.946ZM27.6573 25.4817V20.6603C27.6573 20.5152 27.6043 20.3896 27.4982 20.2836C27.3922 20.1776 27.2666 20.1245 27.1216 20.1245H26.0501C25.905 20.1245 25.7795 20.1776 25.6735 20.2836C25.5674 20.3896 25.5144 20.5152 25.5144 20.6603V25.4817C25.5144 25.6268 25.5674 25.7523 25.6735 25.8584C25.7795 25.9644 25.905 26.0174 26.0501 26.0174H27.1216C27.2666 26.0174 27.3922 25.9644 27.4982 25.8584C27.6043 25.7523 27.6573 25.6268 27.6573 25.4817ZM39.9787 39.946H44.8001V34.5888H39.9787V39.946ZM33.5501 33.5174H38.9073V28.696H33.5501V33.5174ZM39.9787 33.5174H44.8001V28.696H39.9787V33.5174ZM40.5144 25.4817V20.6603C40.5144 20.5152 40.4614 20.3896 40.3554 20.2836C40.2493 20.1776 40.1238 20.1245 39.9787 20.1245H38.9073C38.7622 20.1245 38.6366 20.1776 38.5306 20.2836C38.4246 20.3896 38.3716 20.5152 38.3716 20.6603V25.4817C38.3716 25.6268 38.4246 25.7523 38.5306 25.8584C38.6366 25.9644 38.7622 26.0174 38.9073 26.0174H39.9787C40.1238 26.0174 40.2493 25.9644 40.3554 25.8584C40.4614 25.7523 40.5144 25.6268 40.5144 25.4817ZM46.943 24.4103V45.8388C46.943 46.4192 46.7309 46.9214 46.3068 47.3455C45.8827 47.7696 45.3805 47.9817 44.8001 47.9817H21.2287C20.6483 47.9817 20.1461 47.7696 19.722 47.3455C19.2979 46.9214 19.0858 46.4192 19.0858 45.8388V24.4103C19.0858 23.8299 19.2979 23.3277 19.722 22.9036C20.1461 22.4795 20.6483 22.2674 21.2287 22.2674H23.3716V20.6603C23.3716 19.9237 23.6338 19.2931 24.1584 18.7685C24.6829 18.244 25.3135 17.9817 26.0501 17.9817H27.1216C27.8582 17.9817 28.4887 18.244 29.0133 18.7685C29.5379 19.2931 29.8001 19.9237 29.8001 20.6603V22.2674H36.2287V20.6603C36.2287 19.9237 36.491 19.2931 37.0155 18.7685C37.5401 18.244 38.1707 17.9817 38.9073 17.9817H39.9787C40.7153 17.9817 41.3459 18.244 41.8704 18.7685C42.395 19.2931 42.6573 19.9237 42.6573 20.6603V22.2674H44.8001C45.3805 22.2674 45.8827 22.4795 46.3068 22.9036C46.7309 23.3277 46.943 23.8299 46.943 24.4103Z" fill="white"/>
</g>
<defs>
<clipPath id="clip0_2_1309">
<rect width="27.86" height="30" fill="white" transform="matrix(1 0 0 -1 19.0844 47.9817)"/>
</clipPath>
</defs>
</svg>
