<svg width="19" height="26" viewBox="0 0 19 26" fill="none" xmlns="http://www.w3.org/2000/svg">
<g clip-path="url(#clip0_2_1196)">
<path d="M18.9666 20.3156C18.9666 21.3294 18.6739 22.199 18.0886 22.9244C17.5032 23.6498 16.7984 24.0126 15.9743 24.0126H3.97689C3.15272 24.0126 2.44795 23.6498 1.8626 22.9244C1.27725 22.199 0.984573 21.3294 0.984573 20.3156C0.984573 19.525 1.02438 18.7787 1.10399 18.0765C1.18359 17.3743 1.3311 16.6674 1.54651 15.9559C1.76192 15.2444 2.03587 14.6352 2.36835 14.1284C2.70083 13.6215 3.14101 13.2076 3.6889 12.8867C4.23679 12.5659 4.86663 12.4054 5.57842 12.4054C6.80532 13.5959 8.27104 14.1911 9.97558 14.1911C11.6801 14.1911 13.1459 13.5959 14.3727 12.4054C15.0845 12.4054 15.7144 12.5659 16.2623 12.8867C16.8102 13.2076 17.2503 13.6215 17.5828 14.1284C17.9153 14.6352 18.1892 15.2444 18.4047 15.9559C18.6201 16.6674 18.7676 17.3743 18.8472 18.0765C18.9268 18.7787 18.9666 19.525 18.9666 20.3156ZM13.7897 4.15347C13.7897 4.15347 14.0531 4.41505 14.58 4.93821C15.1068 5.46137 15.3702 6.46235 15.3702 7.94114C15.3702 9.41994 14.8434 10.6825 13.7897 11.7288C12.7361 12.7751 11.4647 13.2983 9.97558 13.2983C8.48645 13.2983 7.21506 12.7751 6.16143 11.7288C5.10779 10.6825 4.58098 9.41994 4.58098 7.94114C4.58098 6.46235 5.10779 5.19979 6.16143 4.15347C7.21506 3.10716 8.48645 2.584 9.97558 2.584C11.4647 2.584 12.7361 3.10716 13.7897 4.15347Z" fill="white"/>
</g>
<defs>
<clipPath id="clip0_2_1196">
<rect width="18" height="25" fill="white" transform="matrix(1 0 0 -1 0.975586 25.7983)"/>
</clipPath>
</defs>
</svg>
